<svg width="71" height="61" viewBox="0 0 71 61" fill="none" xmlns="http://www.w3.org/2000/svg">
<path d="M41.353 46.0825H32.3992C32.3992 47.608 32.3992 52.4497 36.9756 52.4497C40.907 52.4497 41.4193 48.8018 41.353 46.0825Z" stroke="white" stroke-width="1.19384" stroke-linecap="round"/>
<path d="M66.4236 30.5625C66.4236 47.028 52.6339 60.4085 35.5828 60.4085C18.5316 60.4085 4.74194 47.028 4.74194 30.5625C4.74194 14.097 18.5316 0.716548 35.5828 0.716548C52.6339 0.716548 66.4236 14.097 66.4236 30.5625Z" stroke="white" stroke-width="1.19384"/>
<ellipse cx="34.3889" cy="41.5058" rx="0.795892" ry="1.59178" fill="white"/>
<ellipse cx="39.1643" cy="41.5058" rx="0.795892" ry="1.59178" fill="white"/>
<path d="M21.0577 29.5678C21.0577 33.5208 19.8876 37.0754 18.0254 39.6273C16.1629 42.1797 13.64 43.6948 10.9101 43.6948C8.18019 43.6948 5.65728 42.1797 3.79472 39.6273C1.93251 37.0754 0.762446 33.5208 0.762446 29.5678C0.762446 25.6147 1.93251 22.0601 3.79472 19.5082C5.65728 16.9558 8.18019 15.4407 10.9101 15.4407C13.64 15.4407 16.1629 16.9558 18.0254 19.5082C19.8876 22.0601 21.0577 25.6147 21.0577 29.5678Z" fill="white" stroke="white" stroke-width="1.19384"/>
<path d="M70.4029 30.7616C70.4029 34.7146 69.2328 38.2693 67.3706 40.8212C65.5081 43.3736 62.9852 44.8887 60.2553 44.8887C57.5254 44.8887 55.0025 43.3736 53.1399 40.8212C51.2777 38.2693 50.1077 34.7146 50.1077 30.7616C50.1077 26.8086 51.2777 23.2539 53.1399 20.702C55.0025 18.1496 57.5254 16.6345 60.2553 16.6345C62.9852 16.6345 65.5081 18.1496 67.3706 20.702C69.2328 23.2539 70.4029 26.8086 70.4029 30.7616Z" fill="white" stroke="white" stroke-width="1.19384"/>
<ellipse cx="13.8947" cy="29.3688" rx="6.56611" ry="12.9332" fill="#08101B"/>
<ellipse cx="57.2707" cy="30.5626" rx="6.56611" ry="12.9332" fill="#08101B"/>
<ellipse cx="15.2876" cy="24.2238" rx="1.59178" ry="1.36439" fill="#D9D9D9"/>
<circle cx="11.905" cy="27.7766" r="0.994865" fill="#D9D9D9"/>
<circle cx="59.2605" cy="27.7766" r="0.994865" fill="#D9D9D9"/>
<ellipse cx="55.48" cy="24.1671" rx="1.59178" ry="1.36439" fill="#D9D9D9"/>
</svg>
