<svg width="71" height="61" viewBox="0 0 71 61" fill="none" xmlns="http://www.w3.org/2000/svg">
<path d="M66.2581 30.4429C66.2581 46.9084 52.4684 60.2888 35.4172 60.2888C18.3661 60.2888 4.57641 46.9084 4.57641 30.4429C4.57641 13.9774 18.3661 0.596919 35.4172 0.596919C52.4684 0.596919 66.2581 13.9774 66.2581 30.4429Z" fill="#7FAC6B" stroke="#64954F" stroke-width="1.19384"/>
<ellipse cx="32.7959" cy="41.5918" rx="0.795892" ry="1.59178" fill="#40732A"/>
<ellipse cx="37.5713" cy="41.5918" rx="0.795892" ry="1.59178" fill="#40732A"/>
<path d="M20.8922 29.4481C20.8922 33.4011 19.7221 36.9558 17.8599 39.5077C15.9973 42.0601 13.4744 43.5752 10.7445 43.5752C8.01466 43.5752 5.49175 42.0601 3.62919 39.5077C1.76699 36.9558 0.596919 33.4011 0.596919 29.4481C0.596919 25.4951 1.76699 21.9405 3.62919 19.3885C5.49175 16.8362 8.01466 15.321 10.7445 15.321C13.4744 15.321 15.9973 16.8362 17.8599 19.3885C19.7221 21.9405 20.8922 25.4951 20.8922 29.4481Z" fill="white" stroke="#64954F" stroke-width="1.19384"/>
<path d="M70.2374 30.642C70.2374 34.595 69.0673 38.1496 67.2051 40.7016C65.3426 43.2539 62.8196 44.7691 60.0898 44.7691C57.3599 44.7691 54.837 43.2539 52.9744 40.7016C51.1122 38.1496 49.9421 34.595 49.9421 30.642C49.9421 26.689 51.1122 23.1343 52.9744 20.5824C54.837 18.03 57.3599 16.5149 60.0898 16.5149C62.8196 16.5149 65.3426 18.03 67.2051 20.5824C69.0673 23.1343 70.2374 26.689 70.2374 30.642Z" fill="white" stroke="#64954F" stroke-width="1.19384"/>
<ellipse cx="13.7292" cy="29.2492" rx="6.56611" ry="12.9332" fill="#08101B"/>
<ellipse cx="57.1052" cy="30.443" rx="6.56611" ry="12.9332" fill="#08101B"/>
<ellipse cx="15.1221" cy="24.1041" rx="1.59178" ry="1.36439" fill="#D9D9D9"/>
<circle cx="11.7395" cy="27.6575" r="0.994865" fill="#D9D9D9"/>
<circle cx="59.095" cy="27.6575" r="0.994865" fill="#D9D9D9"/>
<ellipse cx="55.3144" cy="24.0475" rx="1.59178" ry="1.36439" fill="#D9D9D9"/>
<path d="M39.9538 48H31C31 49.5255 31 54.3671 35.5764 54.3671C39.5078 54.3671 40.0201 50.7193 39.9538 48Z" fill="#40732A" stroke="#40732A" stroke-width="1.19384" stroke-linecap="round"/>
</svg>
