<svg width="16" height="16" viewBox="0 0 16 16" fill="none" xmlns="http://www.w3.org/2000/svg">
<path d="M8.00033 12.9002C9.35588 11.6557 10.3614 10.5252 11.017 9.5085C11.6725 8.49183 12.0003 7.58905 12.0003 6.80016C12.0003 5.58905 11.6142 4.59739 10.842 3.82516C10.0698 3.05294 9.12255 2.66683 8.00033 2.66683C6.8781 2.66683 5.93088 3.05294 5.15866 3.82516C4.38644 4.59739 4.00033 5.58905 4.00033 6.80016C4.00033 7.58905 4.3281 8.49183 4.98366 9.5085C5.63921 10.5252 6.64477 11.6557 8.00033 12.9002ZM8.00033 14.2168C7.84477 14.2168 7.68921 14.1891 7.53366 14.1335C7.3781 14.0779 7.23921 13.9946 7.11699 13.8835C6.39477 13.2168 5.75588 12.5668 5.20033 11.9335C4.64477 11.3002 4.18088 10.6863 3.80866 10.0918C3.43644 9.49739 3.1531 8.92516 2.95866 8.37516C2.76421 7.82516 2.66699 7.30016 2.66699 6.80016C2.66699 5.1335 3.2031 3.80572 4.27533 2.81683C5.34755 1.82794 6.58921 1.3335 8.00033 1.3335C9.41144 1.3335 10.6531 1.82794 11.7253 2.81683C12.7975 3.80572 13.3337 5.1335 13.3337 6.80016C13.3337 7.30016 13.2364 7.82516 13.042 8.37516C12.8475 8.92516 12.5642 9.49739 12.192 10.0918C11.8198 10.6863 11.3559 11.3002 10.8003 11.9335C10.2448 12.5668 9.60588 13.2168 8.88366 13.8835C8.76144 13.9946 8.62255 14.0779 8.46699 14.1335C8.31144 14.1891 8.15588 14.2168 8.00033 14.2168ZM8.00033 8.00016C8.36699 8.00016 8.68088 7.86961 8.94199 7.6085C9.2031 7.34739 9.33366 7.0335 9.33366 6.66683C9.33366 6.30016 9.2031 5.98627 8.94199 5.72516C8.68088 5.46405 8.36699 5.3335 8.00033 5.3335C7.63366 5.3335 7.31977 5.46405 7.05866 5.72516C6.79755 5.98627 6.66699 6.30016 6.66699 6.66683C6.66699 7.0335 6.79755 7.34739 7.05866 7.6085C7.31977 7.86961 7.63366 8.00016 8.00033 8.00016Z" fill="#555555"/>
</svg>
