<svg width="17" height="17" viewBox="0 0 17 17" fill="none" xmlns="http://www.w3.org/2000/svg">
<path d="M11.1662 6.09992L5.23288 12.0333C5.11066 12.1555 4.9551 12.2166 4.76621 12.2166C4.57732 12.2166 4.42177 12.1555 4.29954 12.0333C4.17732 11.911 4.11621 11.7555 4.11621 11.5666C4.11621 11.3777 4.17732 11.2221 4.29954 11.0999L10.2329 5.16659H5.16621C4.97732 5.16659 4.81899 5.1027 4.69121 4.97492C4.56343 4.84714 4.49954 4.68881 4.49954 4.49992C4.49954 4.31103 4.56343 4.1527 4.69121 4.02492C4.81899 3.89714 4.97732 3.83325 5.16621 3.83325H11.8329C12.0218 3.83325 12.1801 3.89714 12.3079 4.02492C12.4357 4.1527 12.4995 4.31103 12.4995 4.49992V11.1666C12.4995 11.3555 12.4357 11.5138 12.3079 11.6416C12.1801 11.7694 12.0218 11.8333 11.8329 11.8333C11.644 11.8333 11.4857 11.7694 11.3579 11.6416C11.2301 11.5138 11.1662 11.3555 11.1662 11.1666V6.09992Z" fill="#A7CA98"/>
</svg>
