<svg width="155" height="22" viewBox="0 0 155 22" fill="none" xmlns="http://www.w3.org/2000/svg">
<g clip-path="url(#clip0_73_18)">
<path d="M10.4399 20.9999L4.77587 13.5599V20.9999H0.671875V4.15189H4.77587V11.5439L10.3919 4.15189H15.2159L8.68787 12.4079L15.4559 20.9999H10.4399ZM30.0303 14.0879C30.0303 14.4719 30.0063 14.8719 29.9583 15.2879H20.6703C20.7343 16.1199 20.9983 16.7599 21.4623 17.2079C21.9423 17.6399 22.5263 17.8559 23.2143 17.8559C24.2383 17.8559 24.9503 17.4239 25.3503 16.5599H29.7183C29.4943 17.4399 29.0863 18.2319 28.4943 18.9359C27.9183 19.6399 27.1903 20.1919 26.3103 20.5919C25.4303 20.9919 24.4463 21.1919 23.3583 21.1919C22.0463 21.1919 20.8783 20.9119 19.8543 20.3519C18.8303 19.7919 18.0303 18.9919 17.4543 17.9519C16.8783 16.9119 16.5903 15.6959 16.5903 14.3039C16.5903 12.9119 16.8703 11.6959 17.4303 10.6559C18.0063 9.61589 18.8063 8.81589 19.8303 8.25589C20.8543 7.69589 22.0303 7.41589 23.3583 7.41589C24.6543 7.41589 25.8063 7.68789 26.8143 8.23189C27.8223 8.77589 28.6063 9.55189 29.1663 10.5599C29.7423 11.5679 30.0303 12.7439 30.0303 14.0879ZM25.8303 13.0079C25.8303 12.3039 25.5903 11.7439 25.1103 11.3279C24.6303 10.9119 24.0303 10.7039 23.3103 10.7039C22.6223 10.7039 22.0383 10.9039 21.5583 11.3039C21.0943 11.7039 20.8063 12.2719 20.6943 13.0079H25.8303ZM26.1183 4.17589L20.3343 6.59989V3.76789L26.1183 0.983887V4.17589ZM37.6433 21.1919C36.4753 21.1919 35.4353 20.9919 34.5233 20.5919C33.6113 20.1919 32.8913 19.6479 32.3633 18.9599C31.8353 18.2559 31.5393 17.4719 31.4753 16.6079H35.5313C35.5793 17.0719 35.7953 17.4479 36.1793 17.7359C36.5633 18.0239 37.0353 18.1679 37.5953 18.1679C38.1073 18.1679 38.4993 18.0719 38.7713 17.8799C39.0593 17.6719 39.2033 17.4079 39.2033 17.0879C39.2033 16.7039 39.0033 16.4239 38.6033 16.2479C38.2033 16.0559 37.5553 15.8479 36.6593 15.6239C35.6993 15.3999 34.8993 15.1679 34.2593 14.9279C33.6193 14.6719 33.0673 14.2799 32.6033 13.7519C32.1393 13.2079 31.9073 12.4799 31.9073 11.5679C31.9073 10.7999 32.1153 10.1039 32.5313 9.47989C32.9633 8.83989 33.5873 8.33589 34.4033 7.96789C35.2353 7.59989 36.2193 7.41589 37.3553 7.41589C39.0353 7.41589 40.3553 7.83189 41.3153 8.66389C42.2913 9.49589 42.8513 10.5999 42.9953 11.9759H39.2033C39.1393 11.5119 38.9313 11.1439 38.5793 10.8719C38.2433 10.5999 37.7953 10.4639 37.2353 10.4639C36.7553 10.4639 36.3873 10.5599 36.1313 10.7519C35.8753 10.9279 35.7473 11.1759 35.7473 11.4959C35.7473 11.8799 35.9473 12.1679 36.3473 12.3599C36.7633 12.5519 37.4033 12.7439 38.2673 12.9359C39.2593 13.1919 40.0673 13.4479 40.6913 13.7039C41.3153 13.9439 41.8593 14.3439 42.3233 14.9039C42.8033 15.4479 43.0513 16.1839 43.0673 17.1119C43.0673 17.8959 42.8433 18.5999 42.3953 19.2239C41.9633 19.8319 41.3313 20.3119 40.4993 20.6639C39.6833 21.0159 38.7313 21.1919 37.6433 21.1919ZM47.6421 6.21589C46.9221 6.21589 46.3301 6.00789 45.8661 5.59189C45.4181 5.15989 45.1941 4.63189 45.1941 4.00789C45.1941 3.36789 45.4181 2.83989 45.8661 2.42389C46.3301 1.99189 46.9221 1.77589 47.6421 1.77589C48.3461 1.77589 48.9221 1.99189 49.3701 2.42389C49.8341 2.83989 50.0661 3.36789 50.0661 4.00789C50.0661 4.63189 49.8341 5.15989 49.3701 5.59189C48.9221 6.00789 48.3461 6.21589 47.6421 6.21589ZM49.6821 7.60789V20.9999H45.5781V7.60789H49.6821ZM51.8403 14.2799C51.8403 12.9039 52.0963 11.6959 52.6083 10.6559C53.1363 9.61589 53.8483 8.81589 54.7443 8.25589C55.6403 7.69589 56.6403 7.41589 57.7443 7.41589C58.6883 7.41589 59.5123 7.60789 60.2163 7.99189C60.9363 8.37589 61.4883 8.87989 61.8723 9.50389V7.60789H65.9763V20.9999H61.8723V19.1039C61.4723 19.7279 60.9123 20.2319 60.1923 20.6159C59.4883 20.9999 58.6643 21.1919 57.7203 21.1919C56.6323 21.1919 55.6403 20.9119 54.7443 20.3519C53.8483 19.7759 53.1363 18.9679 52.6083 17.9279C52.0963 16.8719 51.8403 15.6559 51.8403 14.2799ZM61.8723 14.3039C61.8723 13.2799 61.5843 12.4719 61.0083 11.8799C60.4483 11.2879 59.7603 10.9919 58.9443 10.9919C58.1283 10.9919 57.4323 11.2879 56.8563 11.8799C56.2963 12.4559 56.0163 13.2559 56.0163 14.2799C56.0163 15.3039 56.2963 16.1199 56.8563 16.7279C57.4323 17.3199 58.1283 17.6159 58.9443 17.6159C59.7603 17.6159 60.4483 17.3199 61.0083 16.7279C61.5843 16.1359 61.8723 15.3279 61.8723 14.3039ZM89.8473 4.15189L83.8713 20.9999H78.7353L72.7593 4.15189H77.1273L81.3033 16.8719L85.5033 4.15189H89.8473ZM93.6265 6.21589C92.9065 6.21589 92.3145 6.00789 91.8505 5.59189C91.4025 5.15989 91.1785 4.63189 91.1785 4.00789C91.1785 3.36789 91.4025 2.83989 91.8505 2.42389C92.3145 1.99189 92.9065 1.77589 93.6265 1.77589C94.3305 1.77589 94.9065 1.99189 95.3545 2.42389C95.8185 2.83989 96.0505 3.36789 96.0505 4.00789C96.0505 4.63189 95.8185 5.15989 95.3545 5.59189C94.9065 6.00789 94.3305 6.21589 93.6265 6.21589ZM95.6665 7.60789V20.9999H91.5625V7.60789H95.6665ZM106.104 17.5199V20.9999H104.016C102.528 20.9999 101.368 20.6399 100.536 19.9199C99.7046 19.1839 99.2886 17.9919 99.2886 16.3439V11.0159H97.6566V7.60789H99.2886V4.34389H103.392V7.60789H106.08V11.0159H103.392V16.3919C103.392 16.7919 103.488 17.0799 103.68 17.2559C103.872 17.4319 104.192 17.5199 104.64 17.5199H106.104ZM114.486 21.1919C113.174 21.1919 111.99 20.9119 110.934 20.3519C109.894 19.7919 109.07 18.9919 108.462 17.9519C107.87 16.9119 107.574 15.6959 107.574 14.3039C107.574 12.9279 107.878 11.7199 108.486 10.6799C109.094 9.62389 109.926 8.81589 110.982 8.25589C112.038 7.69589 113.222 7.41589 114.534 7.41589C115.846 7.41589 117.03 7.69589 118.086 8.25589C119.142 8.81589 119.974 9.62389 120.582 10.6799C121.19 11.7199 121.494 12.9279 121.494 14.3039C121.494 15.6799 121.182 16.8959 120.558 17.9519C119.95 18.9919 119.11 19.7919 118.038 20.3519C116.982 20.9119 115.798 21.1919 114.486 21.1919ZM114.486 17.6399C115.27 17.6399 115.934 17.3519 116.478 16.7759C117.038 16.1999 117.318 15.3759 117.318 14.3039C117.318 13.2319 117.046 12.4079 116.502 11.8319C115.974 11.2559 115.318 10.9679 114.534 10.9679C113.734 10.9679 113.07 11.2559 112.542 11.8319C112.014 12.3919 111.75 13.2159 111.75 14.3039C111.75 15.3759 112.006 16.1999 112.518 16.7759C113.046 17.3519 113.702 17.6399 114.486 17.6399ZM117.654 4.17589L111.87 6.59989V3.76789L117.654 0.983887V4.17589ZM127.776 9.83989C128.256 9.10389 128.856 8.52789 129.576 8.11189C130.296 7.67989 131.096 7.46389 131.976 7.46389V11.8079H130.848C129.824 11.8079 129.056 12.0319 128.544 12.4799C128.032 12.9119 127.776 13.6799 127.776 14.7839V20.9999H123.672V7.60789H127.776V9.83989ZM136.001 6.21589C135.281 6.21589 134.689 6.00789 134.225 5.59189C133.777 5.15989 133.553 4.63189 133.553 4.00789C133.553 3.36789 133.777 2.83989 134.225 2.42389C134.689 1.99189 135.281 1.77589 136.001 1.77589C136.705 1.77589 137.281 1.99189 137.729 2.42389C138.193 2.83989 138.425 3.36789 138.425 4.00789C138.425 4.63189 138.193 5.15989 137.729 5.59189C137.281 6.00789 136.705 6.21589 136.001 6.21589ZM138.041 7.60789V20.9999H133.937V7.60789H138.041ZM140.199 14.2799C140.199 12.9039 140.455 11.6959 140.967 10.6559C141.495 9.61589 142.207 8.81589 143.103 8.25589C143.999 7.69589 144.999 7.41589 146.103 7.41589C147.047 7.41589 147.871 7.60789 148.575 7.99189C149.295 8.37589 149.847 8.87989 150.231 9.50389V7.60789H154.335V20.9999H150.231V19.1039C149.831 19.7279 149.271 20.2319 148.551 20.6159C147.847 20.9999 147.023 21.1919 146.079 21.1919C144.991 21.1919 143.999 20.9119 143.103 20.3519C142.207 19.7759 141.495 18.9679 140.967 17.9279C140.455 16.8719 140.199 15.6559 140.199 14.2799ZM150.231 14.3039C150.231 13.2799 149.943 12.4719 149.367 11.8799C148.807 11.2879 148.119 10.9919 147.303 10.9919C146.487 10.9919 145.791 11.2879 145.215 11.8799C144.655 12.4559 144.375 13.2559 144.375 14.2799C144.375 15.3039 144.655 16.1199 145.215 16.7279C145.791 17.3199 146.487 17.6159 147.303 17.6159C148.119 17.6159 148.807 17.3199 149.367 16.7279C149.943 16.1359 150.231 15.3279 150.231 14.3039Z" fill="black"/>
</g>
<defs>
<clipPath id="clip0_73_18">
<rect width="155" height="22" fill="white"/>
</clipPath>
</defs>
</svg>
